<?xml version="1.0" encoding="UTF-8"?>
<svg id="Ebene_1" data-name="Ebene 1" xmlns="http://www.w3.org/2000/svg" viewBox="0 0 1024 1024">
  <defs>
    <style>
      .cls-1 {
        fill: #fff;
      }

      .cls-2 {
        fill: none;
        stroke: #000;
        stroke-miterlimit: 10;
        stroke-width: 40px;
      }
    </style>
  </defs>
  <rect class="cls-1" width="1024" height="1024" rx="183.36" ry="183.36"/>
  <g>
    <g>
      <path d="M676.19,182.88c-109.15.5-199.12,40.83-261.86,131.65-5.79,8.06-11.21,16.89-16.31,25.33-.69,1.23-5.58,10.42-6.42,11.92-.73,1.24-1.73,3.54-2.37,4.87-1.14,2.49-3.46,7.33-4.61,9.8-1.49,3.66-3.6,8.91-5.09,12.54-1.36,3.37-4.12,11.92-5.35,15.34-1.07,3.71-2.61,9.29-3.69,13.02-.42,1.41-.93,3.8-1.26,5.26,0,0-2.37,10.56-2.37,10.56-.97,6.37-2.71,15.07-3.18,21.4-.33,3.14-.94,7.65-1.03,10.77-.44,6.38-.77,15.31-.62,21.61-.14,5.01.41,11.18.67,16.2.08,3.74,1.27,12.32,1.67,16.12.3,3.13,1.24,7.54,1.74,10.66,10.11,57.97,38.72,107.86,86.76,143.11,0,0,8.01,6.03,8.01,6.03l-.05,9.92c-.04,8.53,2.61,16.87,7.53,23.81,4.86,6.94,12,12.31,20,15.06,6.83,2.59,14.06,2.3,21.38,2.27,6.92.06,39.69-.16,47.13-.14,0,0,0,40,0,40-7.49-.11-40.54-.06-47.13-.14-7.22-.01-15.07.16-22.33-1.32-37.85-6.45-66.84-41.19-66.5-79.55,0,0,7.96,15.95,7.96,15.95-18.14-13.65-35.65-29.61-50-47.64-33.16-41.06-51.36-92.64-56.95-144.71-.47-3.56-.67-8.85-.95-12.49-.61-8.24-.6-16.81-.55-25.04.26-4.33.53-14.57,1.03-18.76.73-6.01,1.09-12.72,2.17-18.65,0,0,1.97-12.37,1.97-12.37.96-4.06,2.96-14.39,4.06-18.33,1.19-4.31,2.94-10.79,4.15-15.08,1.88-5.47,4.94-15.37,7.19-20.68,1.14-2.85,3.47-8.77,4.63-11.63,1.86-4.02,4.67-10.18,6.54-14.21,1.23-2.8,5.9-11.17,7.24-13.86,0,0,1.47-2.76,1.47-2.76,0,0,1.61-2.68,1.61-2.68,38.36-66.24,96.45-122.53,168.16-151.19,45.83-18.76,95.99-26.84,144.92-27.73,0,0,.63,45.75.63,45.75h0Z"/>
      <path d="M627.21,405.57c-57.49-39.16-117.3-81.53-173.87-122.05-8.25-5.85-16.55-11.64-23.22-19.52l24.54-31.59c9.29,4.52,16.94,11.13,24.65,17.68,45.22,38.05,93.9,79.4,138.39,118.3,5.68,4.94,17.19,15.02,22.82,20.03,0,0-13.33,17.15-13.33,17.15h0Z"/>
      <line class="cls-2" x1="624.37" y1="511.5" x2="440.87" y2="679"/>
      <path d="M673.87,553.12c-51.2.92-94.52-41.94-94.56-93.12-.94-51.98,42.6-95.97,94.56-96,0,0,0,40,0,40-14.84-.28-29.45,5.52-40.11,15.89-16.46,15.58-21.87,41.23-13.3,62.22,8.29,21.55,30.26,36.67,53.41,36.77,0,0,0,34.24,0,34.24h0Z"/>
      <path d="M467.87,864c3.09-55.37,32.82-105.88,72.16-142.82,28.83-26.78,64.66-46.9,103.61-54.04,12.95-2.39,26.16-3.3,39.23-2.69v29.1c-75.23,4.93-138.1,70.53-153.03,142.09-1.86,9.75-2.57,19.39-1.97,28.36,0,0-60,0-60,0h0Z"/>
    </g>
    <path d="M609.87,439l20-38-23-32-150-126-14.48,12.1-36.52,39.9-32.49,53.36-23.51,65.64v93.1l11,91.9,60.5,64.01,41.54-4.13,149.96-138.88-4-40,1-41ZM569.31,503.36l-94,86c-19.04-6.78-35.54-14.28-43.46-24.25-3.23-4.06-4.2-9.47-2.76-14.45,2.99-10.38,3.58-20.27,2-29.7-2.35-14.04-.7-28.5,5.57-41.28,2.47-5.04,5.36-10.14,8.65-15.32,6.75-8.99-2.14-17.21-15-25.25-3.46-2.16-3.43-7.22.1-9.28,34.69-20.21,64.67-48.66,77.9-81.47l70,47c-27,37-23,66-9,108Z"/>
  </g>
</svg>